<svg id="Capa_1" enable-background="new 0 0 512 512" height="512" viewBox="0 0 512 512" width="512" xmlns="http://www.w3.org/2000/svg"><g><path d="m477 21h-282c-8.284 0-15 6.716-15 15v120c0 8.284 6.716 15 15 15h302c8.284 0 15-6.716 15-15v-100c0-19.33-15.67-35-35-35z" fill="#9ee2f8"/><g><path d="m477 21h-221v150h241c8.284 0 15-6.716 15-15v-100c0-19.33-15.67-35-35-35z" fill="#8cbcff"/></g><path d="m35 21c-19.33 0-35 15.67-35 35v100c0 8.284 6.716 15 15 15h180v-150z" fill="#ff80aa"/><path d="m0 156v300c0 19.299 15.701 35 35 35h442c19.299 0 35-15.701 35-35v-300z" fill="#fff5f5"/><g><path d="m256 156v335h221c19.299 0 35-15.701 35-35v-300z" fill="#e7f1f9"/></g><path d="m127.5 103.5h-60c-8.284 0-15-6.716-15-15s6.716-15 15-15h60c8.284 0 15 6.716 15 15s-6.716 15-15 15z" fill="#fff5f5"/><g><path d="m265 438.5h-200c-8.284 0-15-6.716-15-15v-200c0-8.284 6.716-15 15-15h200c8.284 0 15 6.716 15 15v200c0 8.284-6.716 15-15 15z" fill="#ff80aa"/><path d="m137.499 383.5c-2.382 0-4.772-.567-6.96-1.713-4.942-2.589-8.039-7.708-8.039-13.287v-90c0-5.579 3.097-10.697 8.039-13.287 4.941-2.59 10.912-2.222 15.5.954l65 45c4.047 2.802 6.462 7.411 6.462 12.333s-2.415 9.531-6.462 12.333l-65 45c-2.557 1.77-5.542 2.667-8.54 2.667z" fill="#fff5f5"/></g><g fill="#453d81"><path d="m447 248.5h-102c-8.284 0-15-6.716-15-15s6.716-15 15-15h102c8.284 0 15 6.716 15 15s-6.716 15-15 15z"/><path d="m447 308.5h-102c-8.284 0-15-6.716-15-15s6.716-15 15-15h102c8.284 0 15 6.716 15 15s-6.716 15-15 15z"/><path d="m447 368.5h-102c-8.284 0-15-6.716-15-15s6.716-15 15-15h102c8.284 0 15 6.716 15 15s-6.716 15-15 15z"/><path d="m447 428.5h-102c-8.284 0-15-6.716-15-15s6.716-15 15-15h102c8.284 0 15 6.716 15 15s-6.716 15-15 15z"/></g><g><g><g><path d="m265 208.5h-9v230h9c8.284 0 15-6.716 15-15v-200c0-8.284-6.716-15-15-15z" fill="#ff3c7d"/></g></g></g></g></svg>